HIERARCHY
ROOT Hips
{
	OFFSET 0.000000 0.000000 0.000000
	CHANNELS 6 Xposition Yposition Zposition Xrotation Yrotation Zrotation
	JOINT LeftUpLeg_virtual
	{
		OFFSET 0.000000 0.000000 0.000000
		CHANNELS 3 Xrotation Yrotation Zrotation
		JOINT LeftUpLeg
		{
			OFFSET 13.026900 -6.336304 -1.092800
			CHANNELS 3 Xrotation Yrotation Zrotation
			JOINT LeftLeg
			{
				OFFSET 0.524474 -46.096886 9.782700
				CHANNELS 3 Xrotation Yrotation Zrotation
				JOINT LeftFoot
				{
					OFFSET -0.524474 -53.427422 -12.948200
					CHANNELS 3 Xrotation Yrotation Zrotation
					JOINT LeftToeBase
					{
						OFFSET 0.192200 -14.009700 16.364100
						CHANNELS 3 Xrotation Yrotation Zrotation
						JOINT LeftToe_End
						{
							OFFSET -1.784700 -0.561700 9.474800
							CHANNELS 3 Xrotation Yrotation Zrotation
							End Site
							{
								OFFSET 0 0 0
							}
						}
					}
				}
			}
		}
	}
	JOINT RightUpLeg_virtual
	{
		OFFSET 0.000000 0.000000 0.000000
		CHANNELS 3 Xrotation Yrotation Zrotation
		JOINT RightUpLeg
		{
			OFFSET -12.883000 -6.336304 -1.092800
			CHANNELS 3 Xrotation Yrotation Zrotation
			JOINT RightLeg
			{
				OFFSET -0.524587 -46.096825 9.782800
				CHANNELS 3 Xrotation Yrotation Zrotation
				JOINT RightFoot
				{
					OFFSET 0.524587 -53.427383 -12.948300
					CHANNELS 3 Xrotation Yrotation Zrotation
					JOINT RightToeBase
					{
						OFFSET -0.192200 -14.009700 16.364100
						CHANNELS 3 Xrotation Yrotation Zrotation
						JOINT RightToe_End
						{
							OFFSET 1.784700 -0.561700 9.474800
							CHANNELS 3 Xrotation Yrotation Zrotation
							End Site
							{
								OFFSET 0 0 0
							}
						}
					}
				}
			}
		}
	}
	JOINT Spine_virtual
	{
		OFFSET 0.000000 0.000000 0.000000
		CHANNELS 3 Xrotation Yrotation Zrotation
		JOINT Spine
		{
			OFFSET 0.072000 7.257294 -0.789700
			CHANNELS 3 Xrotation Yrotation Zrotation
			JOINT Spine1
			{
				OFFSET 0.000000 12.508769 -0.658067
				CHANNELS 3 Xrotation Yrotation Zrotation
				JOINT Spine1_split
				{
					OFFSET 0.000000 12.508769 -0.658067
					CHANNELS 3 Xrotation Yrotation Zrotation
					JOINT Spine2
					{
						OFFSET 0.000000 12.508769 -0.658067
						CHANNELS 3 Xrotation Yrotation Zrotation
						JOINT Neck_virtual
						{
							OFFSET 0.000000 0.000000 0.000000
							CHANNELS 3 Xrotation Yrotation Zrotation
							JOINT Neck
							{
								OFFSET 0.000000 14.033295 7.520400
								CHANNELS 3 Xrotation Yrotation Zrotation
								JOINT Head
								{
									OFFSET 0.000000 8.198502 5.703100
									CHANNELS 3 Xrotation Yrotation Zrotation
									JOINT HeadTop_End
									{
										OFFSET 0.000000 17.760803 13.332701
										CHANNELS 3 Xrotation Yrotation Zrotation
										End Site
										{
											OFFSET 0 0 0
										}
									}
								}
							}
						}
						JOINT LeftShoulder_virtual
						{
							OFFSET 0.000000 0.000000 0.000000
							CHANNELS 3 Xrotation Yrotation Zrotation
							JOINT LeftShoulder
							{
								OFFSET 6.292450 5.785301 -0.669000
								CHANNELS 3 Xrotation Yrotation Zrotation
								JOINT LeftShoulder_split
								{
									OFFSET 6.292450 5.785301 -0.669000
									CHANNELS 3 Xrotation Yrotation Zrotation
									JOINT LeftArm
									{
										OFFSET 13.907140 -6.093903 1.965100
										CHANNELS 3 Xrotation Yrotation Zrotation
										JOINT LeftForeArm
										{
											OFFSET 34.140198 0.000000 0.000000
											CHANNELS 3 Xrotation Yrotation Zrotation
											JOINT LeftHand
											{
												OFFSET 40.960209 0.000000 0.000000
												CHANNELS 3 Xrotation Yrotation Zrotation
												End Site
												{
													OFFSET 0 0 0
												}
											}
										}
									}
								}
							}
						}
						JOINT RightShoulder_virtual
						{
							OFFSET 0.000000 0.000000 0.000000
							CHANNELS 3 Xrotation Yrotation Zrotation
							JOINT RightShoulder
							{
								OFFSET -6.292450 5.785301 -0.669000
								CHANNELS 3 Xrotation Yrotation Zrotation
								JOINT RightShoulder_split
								{
									OFFSET -6.292450 5.785301 -0.669000
									CHANNELS 3 Xrotation Yrotation Zrotation
									JOINT RightArm
									{
										OFFSET -13.907140 -6.093903 1.965100
										CHANNELS 3 Xrotation Yrotation Zrotation
										JOINT RightForeArm
										{
											OFFSET -34.140198 0.000000 0.000000
											CHANNELS 3 Xrotation Yrotation Zrotation
											JOINT RightHand
											{
												OFFSET -40.960209 0.000000 0.000000
												CHANNELS 3 Xrotation Yrotation Zrotation
												End Site
												{
													OFFSET 0 0 0
												}
											}
										}
									}
								}
							}
						}
					}
				}
			}
		}
	}
}
MOTION
Frames: 8
Frame Time: 0.03333333
-1.095387 101.958832 1.180981 0.000000 0.000000 0.000000 -1.799637 -15.917676 -1.155627 -29.467038 15.041116 14.465434 47.594244 3.297612 9.821827 -16.723742 2.600010 -12.293772 -3.203860 -0.202906 -0.313335 0.000000 0.000000 0.000000 -2.127742 -13.562498 -0.863358 -27.902491 -21.145615 -11.388342 47.908501 0.124711 -9.022303 -17.635747 -2.379502 12.715508 -1.020958 0.491786 0.260534 0.000000 0.000000 0.000000 -1.662702 -17.389935 -1.000790 3.441699 0.659667 1.074288 1.313789 1.387713 0.070274 2.638601 -0.392235 -0.622211 0.000000 0.000000 0.000000 0.351502 1.255523 0.164984 1.150230 -0.365512 4.479125 11.059715 12.664882 -3.622133 0.000000 0.000000 0.000000 1.491570 1.160327 -0.498591 0.639055 0.065727 17.046586 1.481977 1.804324 -2.352822 -53.754313 -50.506855 -50.864771 -3.157185 -59.736664 -3.049682 0.000000 0.000000 0.000000 1.125519 1.535654 0.473347 0.478887 -2.253217 1.346290 -0.435912 2.366774 -0.412275 -113.625046 75.541496 108.197020 -2.613315 25.241739 1.232748 0.000000 0.000000 0.000000 
-1.102422 101.859276 1.017178 0.000000 0.000000 0.000000 -1.727588 -15.778960 -1.134280 -29.413926 14.840475 14.407905 47.269659 3.592160 9.747462 -16.876031 2.715808 -12.056031 -2.894758 -0.168602 -0.478373 0.000000 0.000000 0.000000 -2.072428 -13.569959 -0.814438 -27.688576 -21.057055 -11.472394 47.646174 -0.001896 -8.834007 -17.665074 -2.448560 12.572164 -1.101554 0.505985 0.260036 0.000000 0.000000 0.000000 -1.962241 -17.671412 -1.125793 3.236466 0.697037 1.105709 1.012924 1.403571 0.130221 2.002847 -0.360477 -0.382259 0.000000 0.000000 0.000000 0.603624 1.280187 0.172166 1.050887 -0.474849 4.599000 11.805292 12.830842 -3.971047 0.000000 0.000000 0.000000 1.496046 1.188452 -0.404864 0.553652 0.354027 16.949335 1.824426 1.533324 -2.537238 -51.515008 -49.917703 -50.266873 -2.390904 -59.662372 -2.362923 0.000000 0.000000 0.000000 1.164426 1.518491 0.455258 0.395693 -2.586357 0.892306 0.379745 2.451935 -0.619189 -111.316941 75.873675 105.834799 -2.353187 25.819061 1.132083 0.000000 0.000000 0.000000 
-0.983887 101.690872 0.728130 0.000000 0.000000 0.000000 -1.666005 -15.798552 -1.112504 -29.327886 14.505416 14.167385 47.128322 4.055695 9.673538 -16.893476 2.961805 -12.222816 -2.539561 -0.115795 -0.603929 0.000000 0.000000 0.000000 -2.059773 -13.859966 -0.824187 -27.792921 -20.974638 -11.666861 47.644131 -0.114554 -8.598093 -17.436498 -2.451511 12.541700 -1.451084 0.540561 0.253529 0.000000 0.000000 0.000000 -2.126675 -18.352051 -1.204327 2.973436 0.955552 1.231532 0.798012 1.645986 0.315694 1.698926 -0.894876 0.075402 0.000000 0.000000 0.000000 0.877777 1.537251 0.232411 0.715684 -0.483817 4.880694 12.245505 13.519378 -4.703831 0.000000 0.000000 0.000000 1.491061 1.466718 -0.180379 0.367095 0.556143 16.609504 2.102668 1.251146 -2.146509 -48.722611 -49.864356 -49.322445 -2.089544 -60.083747 -1.930965 0.000000 0.000000 0.000000 1.309117 1.700979 0.462007 0.272875 -2.605342 0.096018 1.071474 2.251968 -0.607158 -111.224057 76.606323 105.242417 -1.995415 27.203996 1.008851 0.000000 0.000000 0.000000 
-0.697069 101.505180 0.339462 0.000000 0.000000 0.000000 -1.619051 -15.990287 -1.072940 -29.214775 14.084820 13.697027 47.182059 4.644381 9.604331 -16.751983 3.311265 -12.687790 -2.295826 -0.062276 -0.641189 0.000000 0.000000 0.000000 -2.004088 -14.496508 -0.839664 -28.244668 -20.783977 -11.943187 47.959140 -0.202656 -8.375257 -17.081369 -2.371895 12.561865 -1.828540 0.578858 0.283463 0.000000 0.000000 0.000000 -2.097090 -19.301012 -1.203277 2.716642 1.365017 1.535609 0.837009 2.039150 0.635105 2.080809 -2.083090 0.639995 0.000000 0.000000 0.000000 1.215705 1.956199 0.407096 0.164531 -0.349397 5.158572 12.240780 14.659737 -5.708489 0.000000 0.000000 0.000000 1.496639 1.908741 0.167723 0.141127 0.502919 16.145372 2.187021 1.291613 -1.668614 -46.095574 -50.138315 -48.128470 -2.202682 -60.456429 -1.725259 0.000000 0.000000 0.000000 1.573698 2.028991 0.559240 0.158073 -2.229701 -0.819263 1.524791 1.713020 -0.446628 -113.648009 77.513529 106.649483 -1.643937 28.760472 0.847664 0.000000 0.000000 0.000000 
-0.193108 101.296249 -0.064632 0.000000 0.000000 0.000000 -1.588443 -16.342908 -0.985220 -29.031910 13.679544 12.971722 47.280390 5.335115 9.506171 -16.517199 3.741537 -13.186939 -2.230619 -0.013058 -0.607361 0.000000 0.000000 0.000000 -1.932195 -15.326705 -0.832593 -29.012666 -20.387722 -12.275541 48.654043 -0.315269 -8.207546 -16.686545 -2.274553 12.447543 -1.830461 0.610502 0.382223 0.000000 0.000000 0.000000 -1.838119 -20.202479 -1.127406 2.532585 1.766782 2.041989 1.129434 2.434483 1.057779 2.368994 -3.009834 0.724741 0.000000 0.000000 0.000000 1.593745 2.362019 0.731668 -0.569804 -0.055509 5.286211 11.861408 16.057433 -6.786795 0.000000 0.000000 0.000000 1.530906 2.347033 0.620688 -0.097551 0.128534 15.663664 1.843798 1.677547 -1.471634 -43.884847 -50.381531 -46.821111 -2.596655 -60.238382 -1.656118 0.000000 0.000000 0.000000 1.902492 2.388054 0.800668 0.058732 -1.513459 -1.701701 1.877503 0.841033 -0.160794 -118.590403 78.146503 110.035850 -1.443640 29.989612 0.695990 0.000000 0.000000 0.000000 
0.508261 101.101639 -0.401424 0.000000 0.000000 0.000000 -1.569751 -16.862263 -0.814013 -28.806722 13.302642 12.020823 47.291362 6.035808 9.359136 -16.241481 4.202880 -13.582415 -2.285559 0.038494 -0.569014 0.000000 0.000000 0.000000 -1.781104 -16.197684 -0.733351 -30.146607 -19.782769 -12.702688 49.693820 -0.486419 -8.133398 -16.213462 -2.228092 12.209487 -1.480957 0.627858 0.537173 0.000000 0.000000 0.000000 -1.467453 -20.989120 -1.027604 2.449763 1.967211 2.704263 1.606884 2.667165 1.529566 2.678402 -3.635161 0.753606 0.000000 0.000000 0.000000 1.993574 2.565060 1.171460 -1.397459 0.322339 5.188361 11.311948 17.431575 -7.617444 0.000000 0.000000 0.000000 1.657096 2.596104 1.126277 -0.348439 -0.441494 15.386977 1.629027 2.392028 -1.515174 -42.661734 -50.721716 -46.099549 -3.009505 -59.381146 -1.592444 0.000000 0.000000 0.000000 2.248883 2.619837 1.182793 -0.032898 -0.684177 -2.429360 2.105791 0.110161 0.188188 -123.720790 78.042623 113.359734 -1.480830 30.561278 0.571917 0.000000 0.000000 0.000000 
1.322137 100.954636 -0.662510 0.000000 0.000000 0.000000 -1.562015 -17.493641 -0.593759 -28.601958 12.910537 11.020081 47.248493 6.617150 9.177633 -15.902296 4.585441 -13.791796 -2.320202 0.092164 -0.581082 0.000000 0.000000 0.000000 -1.596195 -16.867209 -0.575231 -31.497943 -19.070406 -13.264898 50.855502 -0.625526 -8.161931 -15.553538 -2.214217 12.151607 -1.111175 0.620776 0.660822 0.000000 0.000000 0.000000 -1.123870 -21.585478 -0.978968 2.457403 1.835170 3.380003 2.163544 2.591898 1.952306 2.476080 -3.353406 0.390988 0.000000 0.000000 0.000000 2.374420 2.455644 1.621118 -2.003130 0.675990 4.956969 11.001266 18.324323 -7.747473 0.000000 0.000000 0.000000 1.899612 2.518619 1.606249 -0.631970 -0.861640 15.401750 1.384437 2.950562 -1.991205 -42.456162 -51.471718 -46.382903 -2.985095 -58.096045 -1.268859 0.000000 0.000000 0.000000 2.518626 2.550289 1.613380 -0.134483 -0.081092 -2.947438 2.297748 -0.167610 0.466537 -126.808254 77.328772 115.066899 -1.709065 30.503365 0.440508 0.000000 0.000000 0.000000 
2.153381 100.880264 -0.843410 0.000000 0.000000 0.000000 -1.583878 -18.061330 -0.410731 -28.460690 12.479952 10.141768 47.226271 6.955302 8.941958 -15.659737 4.768719 -13.734879 -2.244573 0.140830 -0.648377 0.000000 0.000000 0.000000 -1.440069 -17.132244 -0.462226 -32.711975 -18.530288 -13.878449 51.773384 -0.703543 -8.293096 -14.699402 -2.234907 12.459469 -0.929962 0.598730 0.679066 0.000000 0.000000 0.000000 -0.958192 -21.751441 -1.136649 2.533893 1.322475 3.866824 2.620855 2.134520 2.211609 2.078749 -2.441704 -0.329418 0.000000 0.000000 0.000000 2.652428 1.947090 1.934012 -2.085442 0.867703 4.753918 11.219400 18.139126 -6.705765 0.000000 0.000000 0.000000 2.230560 2.031269 1.945880 -0.993368 -0.934405 15.888280 1.053876 3.322384 -2.507830 -42.894418 -52.927382 -47.544411 -2.497929 -56.581690 -0.698664 0.000000 0.000000 0.000000 2.694423 2.087489 1.956259 -0.265387 0.088698 -3.292208 2.559812 -0.146881 0.608976 -126.858702 76.175133 114.751358 -2.057389 30.073903 0.268210 0.000000 0.000000 0.000000 
